<svg xmlns="http://www.w3.org/2000/svg" width="29.697" height="56.754" viewBox="0 0 29.697 56.754">
  <g id="Anti_Malerials-01" data-name="Anti Malerials-01" transform="translate(0.282 -0.459)">
    <g id="Group" transform="translate(0.093 0.834)">
      <path id="Shape" d="M7.821,34.5H4.888A4.858,4.858,0,0,1,0,29.608V4.888A4.858,4.858,0,0,1,4.888,0H7.821a4.858,4.858,0,0,1,4.888,4.888v24.72A4.948,4.948,0,0,1,7.821,34.5Z" transform="translate(0 21.508)" fill="#fff" stroke="#674cf3" stroke-miterlimit="10" stroke-width="0.75"/>
      <path id="Shape-2" data-name="Shape" d="M9.776,29.608V4.888A4.858,4.858,0,0,0,4.888,0h0A4.858,4.858,0,0,0,0,4.888v24.72A4.858,4.858,0,0,0,4.888,34.5h0A4.948,4.948,0,0,0,9.776,29.608Z" transform="translate(2.933 21.508)" fill="#674cf3" opacity="0.1"/>
      <path id="Shape-3" data-name="Shape" d="M8.938,21.648c0,2.374-1.955,2.654-4.469,2.654S0,24.022,0,21.648c0-.279.14-.838.14-1.117v-.279l.14-.838a147.873,147.873,0,0,0,.7-14.944C.978,2.095,2.095,0,4.469,0,8.1,0,8.1,3.073,8.1,4.33c0,0-.14,10.614.559,15.782A10.434,10.434,0,0,1,8.938,21.648Z" transform="translate(1.816)" fill="#fff" stroke="#674cf3" stroke-miterlimit="10" stroke-width="0.75"/>
      <path id="Shape-4" data-name="Shape" d="M3.911,23.323H3.352C1.536,23.323,0,21.508,0,19.273l.14-.7C.559,13.966.14,4.19.14,4.19.14,1.955,1.536,0,3.492,0h0C5.307,0,6.843,1.816,6.843,4.05c0,0-.559,10.2,0,15.223h0C6.983,21.508,5.726,23.323,3.911,23.323Z" transform="translate(3.492 0.978)" fill="#674cf3" opacity="0.1"/>
      <path id="Shape-5" data-name="Shape" d="M2.374,18.3H7.879L7.9,0H2.374A2.447,2.447,0,0,0,0,2.374V15.782A2.478,2.478,0,0,0,2.374,18.3Z" transform="translate(4.469 32.262)" fill="#fbc840" opacity="0.78"/>
    </g>
    <g id="Group-2" data-name="Group" transform="translate(16.323 0.834)">
      <path id="Shape-6" data-name="Shape" d="M7.821,34.5H4.888A4.858,4.858,0,0,1,0,29.608V4.888A4.858,4.858,0,0,1,4.888,0H7.821a4.858,4.858,0,0,1,4.888,4.888v24.72A4.772,4.772,0,0,1,7.821,34.5Z" transform="translate(0 21.508)" fill="#fff" stroke="#674cf3" stroke-miterlimit="10" stroke-width="0.75"/>
      <path id="Shape-7" data-name="Shape" d="M9.776,29.608V4.888A4.858,4.858,0,0,0,4.888,0h0A4.858,4.858,0,0,0,0,4.888v24.72A4.858,4.858,0,0,0,4.888,34.5h0A4.948,4.948,0,0,0,9.776,29.608Z" transform="translate(3.073 21.508)" fill="#674cf3" opacity="0.1"/>
      <path id="Shape-8" data-name="Shape" d="M8.938,21.648c0,2.374-1.955,2.654-4.469,2.654S0,24.022,0,21.648c0-.279.14-.838.14-1.117v-.279l.14-.838a147.873,147.873,0,0,0,.7-14.944C.978,2.095,2.095,0,4.469,0,8.24.14,8.24,3.212,8.24,4.33c0,0-.14,10.614.559,15.782C8.8,20.251,8.938,21.089,8.938,21.648Z" transform="translate(1.816)" fill="#fff" stroke="#674cf3" stroke-miterlimit="10" stroke-width="0.75"/>
      <path id="Shape-9" data-name="Shape" d="M3.771,23.323H3.352C1.536,23.323,0,21.508,0,19.273l.14-.7C.559,13.966.14,4.19.14,4.19.14,1.955,1.536,0,3.492,0h0C5.307,0,6.843,1.816,6.843,4.05c0,0-.559,10.2,0,15.223h0C6.843,21.508,5.586,23.323,3.771,23.323Z" transform="translate(3.631 0.978)" fill="#674cf3" opacity="0.1"/>
      <path id="Shape-10" data-name="Shape" d="M2.386,18.3H7.627L7.658,0H2.386A2.447,2.447,0,0,0,.012,2.374V15.782A2.309,2.309,0,0,0,2.386,18.3Z" transform="translate(4.597 32.262)" fill="#fbc840" opacity="0.78"/>
    </g>
  </g>
</svg>
