<svg xmlns="http://www.w3.org/2000/svg" width="36.421" height="81.007" viewBox="0 0 36.421 81.007">
    <defs>
        <style>
            .cls-1{fill:#fff;stroke:#674cf3;stroke-miterlimit:10}.cls-2{fill:#674cf3;opacity:.1}
        </style>
    </defs>
    <g id="drops" transform="translate(-12.086 -1.706)">
        <path id="Rectangle-path" d="M2.82 0H32.6a2.82 2.82 0 0 1 2.82 2.82v30a2.82 2.82 0 0 1-2.82 2.82H2.82A2.82 2.82 0 0 1 0 32.817v-30A2.82 2.82 0 0 1 2.82 0z" class="cls-1" transform="translate(12.586 46.575)"/>
        <path id="Shape" d="M28.044 0H5.436a6.346 6.346 0 0 1 .817 3.122v22.467A6.579 6.579 0 0 1 0 32.162a6.55 6.55 0 0 0 5.763 3.474h22.281a6.576 6.576 0 0 0 6.556-6.6V6.62a6.618 6.618 0 0 0-1.912-4.68A6.536 6.536 0 0 0 28.044 0z" class="cls-2" transform="translate(13.408 46.575)"/>
        <path id="Rectangle-path-2" d="M1.5 0h30.05a1.5 1.5 0 0 1 1.5 1.5v4.066a1.5 1.5 0 0 1-1.5 1.5H1.5a1.5 1.5 0 0 1-1.5-1.5V1.5A1.5 1.5 0 0 1 1.5 0z" class="cls-1" transform="translate(13.784 39.839)"/>
        <path id="Shape-2" fill="none" stroke="#674cf3" stroke-miterlimit="10" d="M0 32.713l.424-10.541a9.126 9.126 0 0 1 2.166-5.611A27.651 27.651 0 0 0 8.319 2.992 3.549 3.549 0 0 1 11.79.01h2.7a3.705 3.705 0 0 1 3.843 2.723C19.2 6.4 21.106 12.946 24.2 16.514a9.288 9.288 0 0 1 2.329 5.634l.536 10.517a4.976 4.976 0 0 1-1.346 3.671 4.9 4.9 0 0 1-3.569 1.541H4.919a4.9 4.9 0 0 1-3.551-1.525A4.976 4.976 0 0 1 0 32.713z" transform="translate(16.807 2.212)"/>
        <path id="Shape-3" d="M20.429 21.786a9.25 9.25 0 0 0-2.348-5.658c-3.1-3.568-5.024-10.095-5.916-13.781A3.31 3.31 0 0 0 10.24 0a3.592 3.592 0 0 0-1.9 2.535 27.326 27.326 0 0 1-5.777 13.546A9.39 9.39 0 0 0 .38 21.692L0 32.256a4.953 4.953 0 0 0 4.953 5.165h11.039a4.953 4.953 0 0 0 4.953-5.165z" class="cls-2" transform="translate(22.062 2.364)"/>
        <path id="Shape-4" fill="#ffbe0b" d="M4.226 0h15.658v17.208H4.226A4.226 4.226 0 0 1 0 12.982V4.2A4.226 4.226 0 0 1 4.226 0z" opacity="0.78" transform="translate(26.926 55.449)"/>
    </g>
</svg>
