<svg xmlns="http://www.w3.org/2000/svg" width="49.767" height="56.601" viewBox="0 0 49.767 56.601">
  <g id="Inhalers" transform="translate(1616.498 678.913)">
    <path id="Path_30421" data-name="Path 30421" d="M-1585.043-669.142-1581-677.6l12.828,4.3-2.67,8.685,1.145,2.352-12.17,34.764-5.8,3.839h-15.435l-1.087-2.75-9.966.531-.8-11.7,2.01-1.876h8.3l2.327-1.265h6.809Z" fill="#fff"/>
    <path id="Path_30420" data-name="Path 30420" d="M-1566.916-662.17c.422-1.766-10.332-4.982-10.332-4.982s-16.71,37.667-15.426,41.458,10.782-1.507,12.493-.982S-1567.338-660.4-1566.916-662.17Z" transform="translate(-3)" fill="#674cf3" opacity="0.1"/>
    <path id="Path_30418" data-name="Path 30418" d="M294.612-511.489a3.2,3.2,0,0,0-1.657,1.284c-.162.261-.8,1.97-1.418,3.787l-1.115,3.32-.455.109a3.516,3.516,0,0,0-1.581,1.11A22.231,22.231,0,0,0,287-497.993a1.027,1.027,0,0,0,.282.533.548.548,0,0,0,.606.207,1.242,1.242,0,0,0,.476-.185,8.22,8.22,0,0,0,.6-1.491c.249-.762.541-1.567.65-1.785a1.324,1.324,0,0,1,1.137-.74c.411,0,13.254,4.985,13.557,5.257a1.617,1.617,0,0,1,.346.6c.119.468.455-.577-4.526,14.116-2.1,6.171-3.812,11.3-3.812,11.4a1.171,1.171,0,0,0,.227.457.745.745,0,0,0,1.191-.044c.206-.283,8.338-24.183,8.543-25.1a2.74,2.74,0,0,0-.444-2.1,2.093,2.093,0,0,1-.314-.555c0-.065.52-1.643,1.159-3.515s1.191-3.613,1.234-3.885a3.416,3.416,0,0,0-1.494-3.276c-.184-.12-2.111-.816-4.277-1.556s-4.3-1.48-4.743-1.643A4.272,4.272,0,0,0,294.612-511.489Zm5.5,2.852c5.273,1.8,5.576,1.916,5.836,2.253.433.555.466,1.012.152,2.013-.152.49-.292.914-.3.925s-1.223-.381-2.674-.871-4.126-1.415-5.945-2.035-3.346-1.164-3.4-1.208a4.888,4.888,0,0,1,.541-1.785,2.1,2.1,0,0,1,1.3-.707C295.8-510.052,297.828-509.41,300.113-508.638Zm-.8,4.734,5.966,2.035-.628,1.818c-.422,1.219-.682,1.8-.78,1.785-.162-.033-11.705-4.495-11.759-4.549a16.954,16.954,0,0,1,1.115-3.178C293.28-505.96,296.02-505.024,299.312-503.9Z" transform="translate(-1874.995 -166.964)" fill="#674cf3" stroke="#fff" stroke-width="0.6"/>
    <path id="Path_30419" data-name="Path 30419" d="M58.687-362.811a1.1,1.1,0,0,0-.4.348c-.12.2-6.7,19.351-6.7,19.514,0,.022-1.6.054-3.559.076-3.428.033-3.592.044-4.016.272s-1.241,1.023-1.241,1.23a42.627,42.627,0,0,1-4.266.131l-4.277.033-.609.283a3.69,3.69,0,0,0-1.8,1.7l-.316.631v10.884l.37.686a3.826,3.826,0,0,0,1.589,1.578c.664.337,1.611.4,5.431.4h3.82l.25.381a2.853,2.853,0,0,0,1.687,1.143c.4.087,2.754.109,8.021.087,7.259-.033,7.477-.044,8.293-.272a9.959,9.959,0,0,0,6.247-5.039,41.746,41.746,0,0,0,1.894-5.442.868.868,0,0,0-.773-.762c-.566,0-.707.239-1.415,2.362-.37,1.132-.805,2.351-.969,2.71a8.4,8.4,0,0,1-5.17,4.517l-.762.261-7.477.033c-6.606.033-7.521.011-7.8-.141-.686-.348-.664-.087-.664-8.021s-.033-7.51.653-7.869c.261-.131.936-.163,3.962-.163,3.624,0,3.646,0,3.929-.25.229-.2.9-2.079,3.7-10.3,1.883-5.54,3.428-10.144,3.428-10.252a.7.7,0,0,0-.446-.7,1.308,1.308,0,0,0-.337-.152A1.758,1.758,0,0,0,58.687-362.811ZM36.561-333.142v6.487l-1.012-.044c-1.262-.054-1.883-.359-2.242-1.1-.218-.457-.229-.62-.229-5.366,0-4.528.022-4.919.207-5.333.37-.816.99-1.11,2.329-1.121l.947-.011Zm5.823-.011v6.421H38.248l-.033-6.454-.022-6.443,2.09.022,2.1.033Z" transform="translate(-1647.698 -299.184)" fill="#674cf3" stroke="#fff" stroke-width="0.6"/>
    <path id="Shape-4" d="M22.573,2.869,5.541,10.076a10.841,10.841,0,0,1-5.282.876A1.83,1.83,0,0,0,.4,13.03c1.2,1.413,4.563,1.817,7.651.519L25.544,6.473c3.088-1.314,4.323-3.986,3.127-5.4A3.735,3.735,0,0,0,26.16,0a7.037,7.037,0,0,1-3.587,2.869Z" transform="translate(-1598.664 -636.872) rotate(-45)" fill="#ffbe0b" opacity="0.78"/>
  </g>
</svg>
