<svg xmlns="http://www.w3.org/2000/svg" width="13.522" height="20.3" viewBox="0 0 13.522 20.3">
    <defs>
        <style>
            .cls-2{fill:#5b636a;stroke:#5b636a;stroke-width:.3px}
        </style>
    </defs>
    <g id="microphone_1_" opacity="0.8" transform="translate(-45.632 0.15)">
        <path id="Path_3617" d="M59 132.713a.555.555 0 1 0-1.11 0 5.5 5.5 0 1 1-11 0 .555.555 0 1 0-1.11 0 6.622 6.622 0 0 0 6.056 6.591v1.965h-2.471a.555.555 0 0 0 0 1.111h6.056a.555.555 0 0 0 0-1.111h-2.473V139.3A6.622 6.622 0 0 0 59 132.713z" class="cls-2" transform="translate(0 -122.38)"/>
        <path id="Path_3618" d="M90.27 13.928a3.587 3.587 0 0 0 3.582-3.585V3.585a3.582 3.582 0 1 0-7.163 0v6.758a3.587 3.587 0 0 0 3.581 3.585zm0-12.817a2.476 2.476 0 0 1 2.472 2.474v.185h-1.214a.555.555 0 0 0 0 1.111h1.214v1.527h-1.214a.555.555 0 0 0 0 1.111h1.214v1.528h-1.214a.555.555 0 0 0 0 1.111h1.214v.185a2.472 2.472 0 1 1-4.944 0v-.185h1.214a.555.555 0 0 0 0-1.111H87.8V7.519h1.214a.555.555 0 0 0 0-1.111H87.8V4.881h1.214a.555.555 0 0 0 0-1.111H87.8v-.185a2.476 2.476 0 0 1 2.47-2.474z" class="cls-2" transform="translate(-37.877 0)"/>
    </g>
</svg>
