<svg xmlns="http://www.w3.org/2000/svg" width="63.732" height="81.011" viewBox="0 0 63.732 81.011">
  <defs>
    <style>
      .cls-1 {
        fill: #fff;
        stroke: #674cf3;
        stroke-miterlimit: 10;
      }

      .cls-2, .cls-4 {
        fill: #674cf3;
      }

      .cls-2 {
        opacity: 0.1;
      }

      .cls-3, .cls-4 {
        opacity: 0.4;
      }

      .cls-5 {
        fill: #ffbe0b;
        opacity: 0.78;
      }
    </style>
  </defs>
  <g id="oral_sus" data-name="oral sus" transform="translate(-5.874 -1.995)">
    <path id="Rectangle-path" class="cls-1" d="M0,0H53.561V2.6H0Z" transform="matrix(0.762, 0.648, -0.648, 0.762, 8.262, 29.071)"/>
    <path id="Shape" class="cls-1" d="M2.08,0,.925.115C-1.6,3.041,1.214,9.546,7.2,14.646c4.138,3.5,9.989,3.676,13.28,3.426a1.078,1.078,0,0,0,.635-1.925Z" transform="translate(47.561 64.346)"/>
    <path id="Shape-2" data-name="Shape" class="cls-2" d="M21.122,16.186,19.89,15.146A16.609,16.609,0,0,1,9.748,11.663C5.475,8.025,2.819,3.676,2.569.423L2.088,0,.914.115c-2.5,2.945.308,9.45,6.293,14.531,4.042,3.522,9.989,3.791,13.28,3.445a1.078,1.078,0,0,0,.635-1.905Z" transform="translate(48.015 63.884)"/>
    <path id="Shape-3" data-name="Shape" class="cls-1" d="M5.966,0H27.618a5.966,5.966,0,0,1,5.966,5.966V56.679a6.563,6.563,0,0,1-6.563,6.563H6.563A6.563,6.563,0,0,1,0,56.679V6.024A5.966,5.966,0,0,1,5.966,0Z" transform="translate(14.268 18.811)"/>
    <path id="Rectangle-path-2" data-name="Rectangle-path" class="cls-1" d="M2.41,0H16.99A2.41,2.41,0,0,1,19.4,2.41V13.891a2.41,2.41,0,0,1-2.41,2.41H2.41A2.41,2.41,0,0,1,0,13.891V2.41A2.41,2.41,0,0,1,2.41,0Z" transform="translate(21.427 2.495)"/>
    <g id="Group" class="cls-3" transform="translate(25.469 2.707)">
      <path id="Shape-4" data-name="Shape" class="cls-4" d="M15.361,11.663V4.638A4.484,4.484,0,0,0,11.088,0H2.5A4.7,4.7,0,0,0,0,4.215V11.24a4.484,4.484,0,0,0,4.273,4.638h8.584a4.7,4.7,0,0,0,2.5-4.215Z" transform="translate(0)"/>
    </g>
    <path id="Shape-5" data-name="Shape" class="cls-2" d="M26.732,0H5.293a5.774,5.774,0,0,1,.789,2.848V52.368A6.467,6.467,0,0,1,0,58.661a6.582,6.582,0,0,0,5.581,3.06H26.136A6.486,6.486,0,0,0,32.7,55.313V5.832A5.908,5.908,0,0,0,26.732,0Z" transform="translate(15.249 19.811)"/>
    <path id="Shape-6" data-name="Shape" class="cls-5" d="M4.292,0H19.13V35.855H4.292A4.292,4.292,0,0,1,0,31.563V4.292A4.292,4.292,0,0,1,4.292,0Z" transform="translate(27.555 32.008)"/>
  </g>
</svg>
