<svg xmlns="http://www.w3.org/2000/svg" xmlns:xlink="http://www.w3.org/1999/xlink" width="512" height="381.552" xmlns:v="https://vecta.io/nano"><style><![CDATA[.Z,.g,.i,.m{isolation:isolate}.o{fill:none}.p{fill:#fff}.q{opacity:.2}.r{fill:#263238}.s{stroke-miterlimit:10}.t{fill:#407bff}.u{fill:#674cf3}.v{opacity:.4}.w{stroke:#fff}.x{fill:#e0e0e0}.y{opacity:.7}.z{fill:#b97964}.AA{clip-path:url(#A)}.AB{fill:#eee}.AC{stroke-linejoin:round}.AD{stroke:#674cf3}.AE{opacity:.8}.AF{stroke-linecap:round}.AG{fill:#ebb376}.AH{fill:#fcefef}.AI{fill:#f0f0f0}.AJ{clip-path:url(#D)}.AK{stroke:#263238}.AL{stroke-width:.5}.AM{fill:#272727}.AN{fill:#ebebeb}.AO{clip-path:url(#E)}.AP{clip-path:url(#Q)}.AQ{clip-path:url(#W)}.AR{stroke-dasharray:5.284 5.284}.AS{stroke-dasharray:4.529 4.529}]]></style><defs><clipPath id="A"><path d="M0 0h512v381.552H0z" class="o"/></clipPath><clipPath id="B"><path d="M0 0h17.393v17.393H0z" class="o"/></clipPath><clipPath id="C"><path d="M0 0h22.272v13.348H0z" class="AB"/></clipPath><clipPath id="D"><path d="M0 0h17.756v56.568H0z" class="o"/></clipPath><clipPath id="E"><path d="M0 0h15.708v56.568H0z" class="o"/></clipPath><clipPath id="F"><path d="M0 0h33.421v3.323H0z" class="o"/></clipPath><clipPath id="G"><path d="M0 0h33.42v3.323H0z" class="o"/></clipPath><clipPath id="H"><path d="M0 0h15.708v56.568H0z" fill="#ece8fe"/></clipPath><clipPath id="I"><path d="M0 0h23.101v5.397H0z" class="o"/></clipPath><clipPath id="J"><path d="M0 0h68.76v44.722H0z" class="o"/></clipPath><clipPath id="K"><path d="M0 0h55.974v74.414H0z" class="AH"/></clipPath><clipPath id="L"><path d="M0 0h44.426v34.674H0z" class="o"/></clipPath><clipPath id="M"><path d="M0 0h277.426v192.176H0z" class="AH"/></clipPath><clipPath id="N"><path d="M0 0h96.143v5.501H0z" class="o"/></clipPath><clipPath id="O"><path d="M0 0h259.656v25.68H0z" class="o"/></clipPath><clipPath id="P"><path d="M0 0h111.27v146.14H0z" class="o"/></clipPath><clipPath id="Q"><path d="M0 0h27.637v10.226H0z" class="o"/></clipPath><clipPath id="R"><path d="M0 0h87.094v87.094H0z" class="o"/></clipPath><clipPath id="S"><path d="M0 0h41.601v15.237H0z" class="o"/></clipPath><clipPath id="T"><path d="M0 0h84.779v3.331H0z" class="o"/></clipPath><clipPath id="U"><path d="M0 0h84.779v3.33H0z" class="o"/></clipPath><clipPath id="V"><path d="M0 0h54.059v3.33H0z" class="o"/></clipPath><clipPath id="W"><path d="M0 0h5.754v5.754H0z" class="o"/></clipPath><clipPath id="X"><path d="M0 0h14.113v14.113H0z" class="o"/></clipPath><clipPath id="Y"><path d="M0 0h11.059v11.059H0z" class="o"/></clipPath><clipPath id="Z"><path d="M0 0h9.29v9.289H0z" class="o"/></clipPath><clipPath id="a"><path d="M0 0h11.61v11.611H0z" class="u"/></clipPath><clipPath id="b"><path d="M0 0h12.543v12.542H0z" class="o"/></clipPath><clipPath id="c"><path d="M0 0h170.619v172.288H0z" class="o"/></clipPath><clipPath id="d"><path d="M0 0h34.852v51.528H0z" class="AM"/></clipPath><clipPath id="e"><path d="M0 0h31.048v42.23H0z" class="o"/></clipPath><clipPath id="f"><path d="M0 0h62.092v81.329H0z" class="o"/></clipPath><clipPath id="g"><path d="M0 0h61.617v79.096H0z" class="o"/></clipPath><clipPath id="h"><path d="M0 0h74.522v70.498H0z" class="o"/></clipPath><clipPath id="i"><path d="M0 0h74.312v67.379H0z" class="o"/></clipPath><clipPath id="j"><path d="M0 0h19.937v14.019H0z" class="o"/></clipPath><clipPath id="k"><path d="M0 0h18.084v20.029H0z" class="o"/></clipPath><clipPath id="l"><path d="M0 0h12.757v3.099H0z" class="o"/></clipPath><clipPath id="m"><path d="M0 0h9.881v36.69H0z" class="o"/></clipPath><clipPath id="n"><path d="M0 0h47.848v55.365H0z" class="o"/></clipPath><clipPath id="o"><path d="M0 0h9.192v16.476H0z" class="o"/></clipPath><clipPath id="p"><path d="M0 0h51.559v40.956H0z" class="o"/></clipPath><clipPath id="q"><path d="M0 0h27.219v24.37H0z" fill="#c3cde4"/></clipPath><clipPath id="r"><path d="M0 0h7.919v9.058H0z" class="o"/></clipPath><clipPath id="s"><path d="M0 0h8.589v9.532H0z" class="o"/></clipPath><clipPath id="t"><path d="M0 0h4.676v31.732H0z" class="o"/></clipPath><clipPath id="u"><path d="M0 0h23.436v32.023H0z" class="u"/></clipPath><clipPath id="v"><path d="M0 0h8.11v15.946H0z" class="o"/></clipPath><clipPath id="w"><path d="M0 0h67.288v81.054H0z" class="o"/></clipPath><clipPath id="x"><path d="M0 0h3.038v2.025H0z" class="o"/></clipPath><clipPath id="y"><path d="M0 0h5.839v11.99H0z" class="o"/></clipPath><clipPath id="z"><path d="M0 0h9.844v15.858H0z" class="o"/></clipPath><clipPath id="AA"><path d="M0 0h10.998v23.476H0z" class="o"/></clipPath><clipPath id="AB"><path d="M0 0h17.301v23.913H0z" class="o"/></clipPath><clipPath id="AC"><path d="M0 0h30.75v33.38H0z" class="u"/></clipPath><path id="AD" d="M86.118 128.292h-7.67a.89.89 0 0 1-.893-.892v-6.918a.89.89 0 0 1 .893-.893h7.67a.89.89 0 0 1 .892.893v6.921a.89.89 0 0 1-.892.892"/><path id="AE" d="M368.452 330.219h-30.1a1.66 1.66 0 1 1 0-3.323h30.1a1.66 1.66 0 1 1 0 3.323"/><path id="AF" d="M344.245 126.895h3.246v3.246h-3.246z"/><path id="AG" d="M25.697 10.226H1.938A1.94 1.94 0 0 1 0 8.287V1.94A1.94 1.94 0 0 1 1.938.001h23.759a1.94 1.94 0 0 1 1.939 1.939v6.347a1.94 1.94 0 0 1-1.939 1.939"/><path id="AH" d="M113.145 95.52l.094 3.334a2.47 2.47 0 0 0-1.524 2.979c.8 2.872-1.169 7.026-3.457 8.541 0 0 .046-1.207-.994-1.017s-1.345 6.472.353 9.64c0 0-3.625-3.331-4.7-10.056-.993-6.22-.822-10.16.06-13.134z"/></defs><g class="AA"><g class="AN"><path d="M0 335.305h512v.256H0zm426.782 16.482h33.917v.256h-33.917zm-96.514 2.778h8.902v.256h-8.902zm75.836-12.287h19.653v.256h-19.653zm-352.386 1.72h44.23v.256h-44.23zm53.347 0h6.485v.256h-6.485zm27.561 4.325h95.924v.255h-95.924z"/></g><g class="AA"><g class="AN"><path d="M242.702 289.635H44.969a5.85 5.85 0 0 1-5.845-5.845V5.845C39.128 2.618 41.742.004 44.969 0h197.733c3.226.004 5.84 2.619 5.844 5.845V283.79c-.003 3.226-2.618 5.841-5.844 5.845M44.969.256a5.6 5.6 0 0 0-5.589 5.589V283.79a5.6 5.6 0 0 0 5.589 5.589h197.733a5.6 5.6 0 0 0 5.588-5.589V5.845a5.6 5.6 0 0 0-5.588-5.589zM464.19 289.635H266.457c-3.226-.004-5.841-2.619-5.844-5.845V5.845c.003-3.226 2.618-5.841 5.844-5.845H464.19c3.227.004 5.841 2.618 5.845 5.845V283.79a5.85 5.85 0 0 1-5.845 5.845M266.457.256a5.6 5.6 0 0 0-5.588 5.589V283.79a5.6 5.6 0 0 0 5.588 5.589H464.19a5.6 5.6 0 0 0 5.589-5.589V5.845A5.6 5.6 0 0 0 464.19.256z"/></g><path d="M362.421 44.219a5 5 0 0 0-6.445-4.8 10.6 10.6 0 0 0-12.445-11.958 9.27 9.27 0 0 0-17.186 4.689c-.052 0-.1-.007-.155-.007a8.54 8.54 0 0 0-7.475 12.839 8.54 8.54 0 0 0 7.475 4.244h31.369l-.006-.007a5 5 0 0 0 4.866-5" class="AB AE"/><path d="M344.016 51.712v-9.761h-7.962v9.762h-6.483l10.464 8.842 10.464-8.842z" class="x"/><path d="M205.498 58.987a10.63 10.63 0 0 0-13.688-10.185c1.058-7.199-1.428-14.465-6.674-19.506s-12.605-7.237-19.756-5.894c-4.558-7.5-13.53-11.076-21.997-8.768S129 24.578 128.88 33.353c-.11 0-.217-.017-.328-.017-10.019 0-18.141 8.122-18.141 18.141s8.122 18.141 18.141 18.141h66.621l-.013-.014a10.63 10.63 0 0 0 10.338-10.617" class="AB AE"/><path d="M149.499 59.812v20.732h16.91V59.812h13.772l-22.226-18.779-22.224 18.779z" class="x"/><g stroke="#e6e6e6" class="o s"><path d="M213.986 110.776V82.894h85.384v27.6"/><path d="M257.94 56.618v54.081"/></g><path d="M272.463 45.996h-29.046c-.671.001-1.214.544-1.215 1.215v17.287c.001.671.544 1.214 1.215 1.215h29.046c.671-.001 1.214-.544 1.214-1.215V47.211c0-.671-.543-1.214-1.214-1.215" class="AI"/><path d="M272.16 64.924h-28.439a.43.43 0 0 1-.432-.431v-15.75a.43.43 0 0 1 .432-.432h28.438a.43.43 0 0 1 .431.432v15.75a.43.43 0 0 1-.431.431" class="x"/><path d="M228.507 108.247h-29.045c-.671.001-1.214.544-1.215 1.215v17.286c.001.671.544 1.214 1.215 1.215h29.045c.322 0 .631-.128.859-.356s.356-.537.356-.859v-17.286c0-.322-.128-.631-.356-.859s-.537-.356-.859-.356" class="AI"/><path d="M228.206 127.176h-28.434a.43.43 0 0 1-.431-.431v-15.754a.43.43 0 0 1 .431-.431h28.439a.43.43 0 0 1 .431.431v15.75a.43.43 0 0 1-.431.431" class="x"/><path d="M272.463 108.247h-29.046c-.671.001-1.214.544-1.215 1.215v17.286c.001.671.544 1.214 1.215 1.215h29.046c.67-.001 1.213-.544 1.214-1.214v-17.287c0-.671-.543-1.214-1.214-1.215" class="AI"/><path d="M272.16 127.176h-28.439a.43.43 0 0 1-.432-.431v-15.754a.43.43 0 0 1 .432-.431h28.438a.43.43 0 0 1 .431.431v15.75a.43.43 0 0 1-.431.431" class="x"/><path d="M313.96 108.247h-29.044c-.671 0-1.215.544-1.216 1.215v17.286c.001.671.545 1.215 1.216 1.215h29.045c.671 0 1.215-.544 1.216-1.215v-17.286c-.001-.671-.545-1.215-1.216-1.215" class="AI"/><path d="M313.658 127.176h-28.439a.43.43 0 0 1-.432-.431v-15.754a.43.43 0 0 1 .432-.431h28.439a.43.43 0 0 1 .431.431v15.75a.43.43 0 0 1-.431.431" class="x"/><g clip-path="url(#B)" transform="translate(249.244 74.198)" class="x"><path d="M8.113.241L.242 8.112c-.321.322-.321.844 0 1.166l7.871 7.871c.322.321.844.321 1.166 0l7.871-7.871c.155-.155.242-.364.242-.583s-.087-.428-.242-.583L9.279.241c-.155-.155-.364-.242-.583-.242s-.428.087-.583.242"/></g><g class="AE AB"><g clip-path="url(#C)" transform="translate(69.842 69.322)"><path d="M21.38 13.348H.895c-.493 0-.892-.399-.893-.892V.893C.004.401.403.003.895.003H21.38a.89.89 0 0 1 .892.892v11.561a.89.89 0 0 1-.892.892"/></g></g><g class="AB"><path d="M75.592 108.219H59.364a.89.89 0 0 1-.892-.892v-8.4a.89.89 0 0 1 .892-.892h16.228a.89.89 0 0 1 .892.892v8.4a.89.89 0 0 1-.892.892m27.33 0H86.694a.89.89 0 0 1-.892-.892v-8.4a.89.89 0 0 1 .892-.892h16.228a.89.89 0 0 1 .892.892v8.4a.89.89 0 0 1-.892.892"/><use xlink:href="#AD"/><path d="M98.126 128.292h-7.671c-.493 0-.892-.399-.893-.892v-6.918c0-.237.094-.464.262-.631s.395-.262.631-.262h7.671a.89.89 0 0 1 .891.893v6.921a.89.89 0 0 1-.891.892"/></g><path d="M110.133 128.292h-7.67a.89.89 0 0 1-.893-.892v-6.918a.89.89 0 0 1 .893-.893h7.67a.89.89 0 0 1 .892.893v6.921a.89.89 0 0 1-.892.892" class="x"/><g class="AB"><path d="M58.336 128.292h-7.669c-.493 0-.892-.399-.893-.892v-6.918a.89.89 0 0 1 .262-.631c.168-.167.395-.262.631-.262h7.67a.89.89 0 0 1 .892.893v6.921a.89.89 0 0 1-.892.892m13.03-.003h-7.67a.89.89 0 0 1-.893-.892v-6.918a.89.89 0 0 1 .893-.893h7.67a.89.89 0 0 1 .892.893v6.921a.89.89 0 0 1-.892.892"/></g><g class="x"><path d="M93.774 98.03h1.024v-7.168H81.49V82.67h-1.024v8.192H67.154v7.168h1.02v-6.144h25.6zm-26.62 16.384H53.842v5.124h1.02v-4.1h12.292v4.1h1.024V108.27h-1.024zm27.648 1.024v-7.168h-1.024v7.168H81.49v4.1h1.02v-3.072h11.268v3.072h1.024v-3.072h11.264v3.072h1.024v-4.1z"/></g><g class="AB"><path d="M390.137 72.526v7.357l3.788.357c.505 2.422 1.463 4.727 2.824 6.794l-2.433 2.939 5.2 5.2 2.939-2.434a19.65 19.65 0 0 0 6.8 2.826l.356 3.788h7.356l.356-3.789a19.63 19.63 0 0 0 6.8-2.825l2.939 2.434 5.2-5.2-2.433-2.939a19.65 19.65 0 0 0 2.815-6.791l3.789-.357v-7.36l-3.789-.356a19.64 19.64 0 0 0-2.824-6.794l2.433-2.94-5.2-5.2-2.939 2.433a19.65 19.65 0 0 0-6.8-2.824l-.356-3.788h-7.356l-.356 3.788a19.65 19.65 0 0 0-6.8 2.824l-2.939-2.433-5.2 5.2 2.433 2.939a19.64 19.64 0 0 0-2.824 6.8zm23.15-6.283a9.96 9.96 0 0 1 9.958 9.958 9.96 9.96 0 1 1-16.999-7.041 9.96 9.96 0 0 1 7.041-2.917m-18.4 59.959a15.39 15.39 0 0 0 5.325-2.214l2.3 1.907 4.078-4.076-1.908-2.3a15.41 15.41 0 0 0 2.214-5.324l2.968-.28v-5.764l-2.968-.28a15.42 15.42 0 0 0-2.214-5.325l1.908-2.3-4.078-4.077-2.3 1.907a15.43 15.43 0 0 0-5.325-2.214l-.28-2.968h-5.764l-.28 2.968a15.44 15.44 0 0 0-5.325 2.214l-2.3-1.907-4.082 4.071 1.907 2.3c-1.067 1.619-1.818 3.426-2.214 5.325l-2.969.28v5.764l2.969.28a15.39 15.39 0 0 0 2.214 5.325l-1.907 2.3 4.077 4.076 2.3-1.907a15.39 15.39 0 0 0 5.325 2.214l.28 2.969h5.764zm-10.965-15.173a7.8 7.8 0 1 1 2.285 5.515 7.8 7.8 0 0 1-2.285-5.515" class="AE"/><path d="M382.03 95.002l1.933 1.6 3.424-3.423-1.6-1.934c.896-1.36 1.527-2.878 1.86-4.472l2.493-.236v-4.84l-2.493-.234c-.333-1.595-.964-3.112-1.86-4.473l1.6-1.934-3.424-3.423-1.933 1.6c-1.361-.896-2.878-1.527-4.473-1.86l-.234-2.493h-4.843l-.234 2.492a12.92 12.92 0 0 0-4.472 1.86l-1.934-1.6-3.424 3.423 1.6 1.934c-.896 1.361-1.527 2.878-1.86 4.473l-2.492.234v4.841l2.492.236c.334 1.594.965 3.111 1.86 4.472l-1.6 1.934 3.424 3.423 1.934-1.6a12.94 12.94 0 0 0 4.472 1.86l.234 2.493h4.843l.234-2.493c1.595-.333 3.112-.964 4.473-1.86m-13.685-10.888c0-3.62 2.935-6.555 6.555-6.555s6.555 2.935 6.555 6.555-2.935 6.555-6.555 6.555c-1.738 0-3.406-.691-4.635-1.92s-1.92-2.897-1.92-4.635" class="AE"/></g><path d="M381.17 275.536h68.76v44.722h-68.76z" fill="#f5f5f5"/><path d="M383.685 283.921h63.729v34.1h-63.729z" class="x"/><g fill="#f5f5f5"><path d="M388.877 289.017h47.142v1.467h-47.142zm.001 4.492h22.618v1.467h-22.618zm0 4.492h28.488v1.467h-28.488zm0 4.495h10.04v1.466h-10.04zm0 4.491h6.501v1.467h-6.501z"/></g><path d="M48.96 275.506l48.926-.223.137 30.179-48.926.223z" class="AN"/><g fill="#fafafa"><path d="M67.729 298.097c-.216-.001-.426-.071-.6-.2l-8.927-6.523a1.02 1.02 0 0 1-.42-.822c-.001-.325.152-.632.413-.826l8.868-6.6c.293-.218.681-.264 1.016-.119s.569.457.612.821-.112.721-.405.94l-7.754 5.773 7.806 5.7c.358.261.507.724.369 1.145s-.531.706-.974.706m11.58-.048c-.441 0-.833-.283-.972-.702s.006-.88.36-1.143l7.754-5.773-7.806-5.7c-.443-.338-.535-.968-.207-1.418s.957-.555 1.414-.236l8.927 6.521a1.02 1.02 0 0 1 .42.823c.001.326-.152.632-.413.826l-8.867 6.6c-.176.131-.39.201-.61.2"/><path d="M71.193 298.08c-.332 0-.643-.161-.835-.431s-.241-.618-.132-.931l4.6-13.146c.192-.526.771-.8 1.3-.615s.811.76.633 1.291l-4.6 13.146c-.144.411-.532.686-.967.686"/></g><path d="M454.547 369.957c0 6.4-88.89 11.595-198.542 11.595s-198.547-5.191-198.547-11.595S146.347 358.362 256 358.362s198.547 5.192 198.547 11.595" fill="#dbdbdb" opacity=".9"/></g><path d="M342.41 369.958h7.515l10.24-56.568h-7.517z" class="r"/><g class="AA"><g class="q p"><g transform="translate(342.41 313.391)" class="AJ"><path d="M0 56.568h7.515L17.755 0h-7.517z"/></g></g><g class="q p"><g transform="translate(342.41 313.391)" class="AO"><path d="M0 56.568h5.469L15.709 0H10.24z"/></g></g><g class="r"><path d="M321.217 330.219h30.1a1.661 1.661 0 1 0 0-3.323h-30.1a1.661 1.661 0 1 0 0 3.323m-3.342 18.938h30.1a1.661 1.661 0 1 0 0-3.323h-30.1a1.661 1.661 0 1 0 0 3.323"/><path d="M311.69 369.958h7.515l10.24-56.568h-7.517z"/></g><g class="q p"><g transform="translate(311.69 313.391)" class="AJ"><path d="M0 56.568h7.515L17.755 0h-7.517z"/></g></g><g class="q p"><g transform="translate(311.69 313.391)" class="AO"><path d="M0 56.568h5.469L15.709 0H10.24z"/></g></g><path d="M381.671 369.958h-7.517l-10.24-56.568h7.515z" class="r"/><g class="v p"><g transform="translate(363.914 313.391)" class="AJ"><path d="M17.757 56.568H10.24L0 0h7.515z"/></g></g><g class="q p"><g transform="translate(363.914 313.391)" class="AO"><path d="M15.709 56.568H10.24L0 0h5.469z"/></g></g><g class="r"><use xlink:href="#AE"/><path d="M371.795 349.157h-30.1a1.66 1.66 0 1 1 0-3.323h30.1a1.66 1.66 0 1 1 0 3.323"/></g><g class="q p"><g clip-path="url(#F)" transform="translate(336.693 326.896)"><path d="M31.759 3.323h-30.1a1.66 1.66 0 1 1 0-3.323h30.1a1.66 1.66 0 1 1 0 3.323"/></g></g><g class="q p"><g clip-path="url(#G)" transform="translate(340.036 345.834)"><path d="M31.759 3.323h-30.1a1.66 1.66 0 1 1 0-3.323h30.1a1.66 1.66 0 1 1 0 3.323"/></g></g><path d="M350.951 369.958h-7.517l-10.24-56.568h7.515z" class="r"/><g class="v p"><g transform="translate(333.194 313.391)" class="AJ"><path d="M17.757 56.568H10.24L0 0h7.515z"/></g></g><g class="q"><g clip-path="url(#H)" transform="translate(333.194 313.391)"><path d="M15.709 56.568H10.24L0 0h5.469z" fill="#ece8fe"/></g></g><path d="M374.371 316.089h-54.378c-.671-.001-1.215-.545-1.215-1.216v-2.965c.001-.671.544-1.214 1.215-1.215h54.378c.671 0 1.215.544 1.216 1.215v2.965c0 .323-.128.632-.356.86s-.537.356-.86.356" class="r"/><g class="q p"><g clip-path="url(#I)" transform="translate(318.779 310.692)"><path d="M21.886 5.397H1.215c-.322 0-.632-.128-.859-.356S0 4.503 0 4.181V1.216C0 .545.544.001 1.215.001h20.671c.671 0 1.215.544 1.216 1.215v2.965c0 .323-.128.632-.356.86s-.537.356-.86.356"/></g></g></g><path d="M130.256 324.5h68.76v44.722h-68.76z" class="t"/><g class="AA p"><g opacity=".6"><g clip-path="url(#J)" transform="translate(130.256 324.5)"><path d="M0 0h68.76v44.722H0z"/></g></g></g><path d="M132.772 332.886h63.729v34.1h-63.729z" fill="#8039db"/><g class="p"><path d="M137.965 337.98h47.142v1.467h-47.142zm0 4.494h22.618v1.466h-22.618zm0 4.492h28.488v1.467h-28.488zm0 4.493h10.04v1.466h-10.04zm-.001 4.493h6.502v1.467h-6.502z"/></g><path d="M283.989 369.957h-55.978l9.478-74.413h37.021z" class="t"/><g class="AA"><g opacity=".6" class="AH"><g clip-path="url(#K)" transform="translate(228.012 295.545)"><path d="M55.974 74.414H0l6.486-50.91L9.479.004h37.016l4.419 34.675z"/></g></g><g opacity=".1"><g clip-path="url(#L)" transform="translate(234.499 295.545)"><path d="M44.426 34.674L-.003 23.504 2.989.004h37.016z"/></g></g><path d="M387.959 112.056H124.04c-3.73 0-6.753 3.023-6.754 6.753v178.67c.001 3.73 3.024 6.753 6.754 6.753h263.919c3.73 0 6.753-3.023 6.754-6.753v-178.67c-.001-3.73-3.024-6.753-6.754-6.753" class="t"/><g opacity=".6" class="AH"><g clip-path="url(#M)" transform="translate(117.287 112.056)"><path d="M270.672 0H6.753C3.023 0 0 3.023-.001 6.753v178.67c.001 3.73 3.024 6.753 6.754 6.753h263.919c3.73 0 6.753-3.023 6.754-6.753V6.753C277.425 3.023 274.402 0 270.672 0"/></g></g><path d="M126.174 118.669H385.83v172.288H126.174z" class="u"/><path d="M303.009 364.366h-94.02a1.06 1.06 0 0 0-1.061 1.062v3.377a1.06 1.06 0 0 0 1.061 1.062h94.021a1.06 1.06 0 0 0 1.062-1.062v-3.377a1.06 1.06 0 0 0-1.062-1.062" class="t"/><g class="y p"><g clip-path="url(#N)" transform="translate(207.928 364.366)"><path d="M95.081 0H1.061A1.06 1.06 0 0 0 0 1.062v3.377a1.06 1.06 0 0 0 1.061 1.062h94.021a1.06 1.06 0 0 0 1.062-1.062V1.062A1.06 1.06 0 0 0 95.082 0"/></g></g><g class="Z q"><g><g clip-path="url(#O)" transform="translate(126.174 118.834)"><path d="M0 0h259.656v25.68H0z"/></g></g></g><g class="v p"><g clip-path="url(#P)" transform="translate(126.174 144.818)"><path d="M0-.001h111.271v146.14H0z"/></g></g><g class="o s w"><path d="M345.868 182.097v2.56h-2.56"/><path d="M337.898 184.657h-83.864" class="AR"/><path d="M251.331 184.657h-2.56v-2.56"/><path d="M248.769 177.459v-44.062" class="AS"/><path d="M248.77 131.077v-2.56h2.56"/><path d="M256.74 128.517h83.864" class="AR"/><path d="M343.308 128.517h2.56v2.56"/><path d="M345.868 135.716v44.062" class="AS"/></g><use xlink:href="#AF" class="t"/><use xlink:href="#AF" class="o s w"/><path d="M344.245 183.034h3.246v3.246h-3.246z" class="t"/><path d="M344.245 183.034h3.246v3.246h-3.246z" class="o s w"/><path d="M247.145 126.895h3.246v3.246h-3.246z" class="t"/><path d="M247.145 126.895h3.246v3.246h-3.246z" class="o s w"/><path d="M247.145 183.034h3.246v3.246h-3.246z" class="t"/><path d="M247.145 183.034h3.246v3.246h-3.246z" class="o s w"/><path d="M295.695 126.895h3.246v3.246h-3.246z" class="t"/><path d="M295.695 126.895h3.246v3.246h-3.246z" class="o s w"/><path d="M295.695 183.034h3.246v3.246h-3.246z" class="t"/><path d="M295.695 183.034h3.246v3.246h-3.246z" class="o s w"/><path d="M344.245 154.964h3.246v3.246h-3.246z" class="t"/><path d="M344.245 154.964h3.246v3.246h-3.246z" class="o s w"/><path d="M247.145 154.964h3.246v3.246h-3.246z" class="t"/><path d="M247.145 154.964h3.246v3.246h-3.246z" class="o s w"/><g class="y p"><g transform="translate(311.352 147.374)" class="AP"><use xlink:href="#AG"/></g></g><g class="y p"><g transform="translate(270.392 147.374)" class="AP"><use xlink:href="#AG"/></g></g><g class="y p"><g transform="translate(217.658 271.88)" class="AP"><path d="M25.697 10.226H1.943A1.94 1.94 0 0 1 .004 8.287V1.94A1.94 1.94 0 0 1 1.943.001h23.759a1.94 1.94 0 0 1 1.939 1.939v6.347a1.94 1.94 0 0 1-1.939 1.939"/></g></g><g stroke-width="1.5" class="o w AC AF"><path d="M368.696 127.965h8.643m-8.643 4.096h8.643m-8.643 4.096h8.643"/></g><g opacity=".5" class="p"><g clip-path="url(#R)" transform="translate(143.777 167.471)"><path d="M0 0h87.094v87.094H0z"/></g></g><g class="o s AD"><path d="M180.235 174.594v75.121"/><path d="M217.795 249.716c-20.744 0-37.56-16.816-37.561-37.561s16.816-37.56 37.561-37.56"/></g><path d="M216.173 172.971h3.246v3.246h-3.246z" class="p"/><path d="M216.173 172.971h3.246v3.246h-3.246z" class="o s AD"/><path d="M216.173 248.093h3.246v3.246h-3.246z" class="p"/><path d="M216.173 248.093h3.246v3.246h-3.246z" class="o s AD"/><path d="M178.612 210.532h3.246v3.246h-3.246z" class="p"/><path d="M178.612 210.532h3.246v3.246h-3.246z" class="o s AD"/><path d="M181.077 174.594a.84.84 0 1 1-1.682-.001.84.84 0 0 1 1.435-.595.84.84 0 0 1 .247.595" class="p"/><path d="M181.077 174.594a.84.84 0 1 1-1.682-.001.84.84 0 0 1 1.435-.595.84.84 0 0 1 .247.595z" class="o s AD"/><path d="M181.077 249.716a.84.84 0 1 1-1.682-.001.84.84 0 0 1 1.435-.595.84.84 0 0 1 .247.595" class="p"/><path d="M181.077 249.716a.84.84 0 1 1-1.682-.001.84.84 0 0 1 1.435-.595.84.84 0 0 1 .247.595z" class="o s AD"/><g class="y p"><g clip-path="url(#S)" transform="translate(290.552 257.88)"><path d="M33.982 15.237H7.619A7.62 7.62 0 0 1 .948 3.784 7.62 7.62 0 0 1 7.619 0h26.364a7.62 7.62 0 0 1 6.671 11.453 7.62 7.62 0 0 1-6.671 3.784"/></g></g><g class="y p"><g clip-path="url(#T)" transform="translate(264.586 204.813)"><path d="M83.115 3.331H1.665C.745 3.331 0 2.586 0 1.666S.745.001 1.665.001h81.45c.92 0 1.665.745 1.665 1.665s-.745 1.665-1.665 1.665"/></g></g><g class="y p"><g clip-path="url(#U)" transform="translate(264.586 216.975)"><path d="M83.115 3.33H1.665C.745 3.33 0 2.585 0 1.665S.745 0 1.665 0h81.45c.92 0 1.665.745 1.665 1.665s-.745 1.665-1.665 1.665"/></g></g><g class="y p"><g clip-path="url(#V)" transform="translate(295.306 229.137)"><path d="M52.394 3.333H1.665C.745 3.333 0 2.588 0 1.668S.745.003 1.665.003h50.729c.92 0 1.665.745 1.665 1.665s-.745 1.665-1.665 1.665"/></g></g><g class="g v"><g><g transform="translate(134.374 125.952)" class="AQ"><path d="M0 0h5.754v5.754H0z"/></g></g></g><g class="g v"><g><g transform="translate(145.563 125.952)" class="AQ"><path d="M4.279 5.754H1.473c-.814 0-1.474-.66-1.474-1.474V1.474c0-.391.155-.766.432-1.043S1.083 0 1.474 0H4.28c.815 0 1.475.66 1.475 1.475v2.806c-.001.814-.661 1.474-1.475 1.474"/></g></g></g><g class="g v"><g><g transform="translate(156.75 125.952)" class="AQ"><path d="M3.124 5.754h-.487c-.698 0-1.368-.277-1.862-.771S.004 3.819.004 3.121v-.487C.003 1.181 1.181.002 2.634 0h.487c1.455 0 2.634 1.179 2.634 2.634v.487c0 .698-.278 1.368-.772 1.862s-1.164.771-1.862.771"/></g></g></g><g opacity=".9" class="p"><g clip-path="url(#X)" transform="translate(137.905 259.649)"><path d="M14.113 8.178V5.937l-1.155-.109a5.99 5.99 0 0 0-.86-2.072l.741-.9-1.586-1.585-.895.741a5.99 5.99 0 0 0-2.072-.861L8.177-.004H5.934l-.109 1.155c-.739.154-1.442.446-2.072.861l-.9-.741-1.585 1.585.741.9c-.415.63-.707 1.333-.861 2.072l-1.154.109v2.242l1.154.11c.154.738.446 1.441.861 2.071l-.741.9 1.585 1.585.9-.741a5.98 5.98 0 0 0 2.072.861l.109 1.155h2.243l.109-1.155a5.99 5.99 0 0 0 2.072-.861l.895.741 1.586-1.585-.741-.9c.414-.63.706-1.333.861-2.071zm-7.056 1.915c-1.228 0-2.336-.739-2.806-1.874s-.21-2.441.658-3.309 2.174-1.128 3.309-.658 1.874 1.578 1.874 2.806c0 .805-.32 1.577-.889 2.146s-1.341.889-2.146.889"/></g></g><g opacity=".6" class="p"><g clip-path="url(#Y)" transform="translate(150.047 267.747)"><path d="M11.059 6.408V4.651l-.905-.085c-.121-.579-.35-1.129-.675-1.623l.582-.7-1.242-1.242-.7.582c-.494-.325-1.044-.554-1.623-.675L6.411.003H4.654l-.085.905c-.579.121-1.129.35-1.623.675l-.7-.582-1.242 1.242.582.7c-.325.494-.554 1.044-.675 1.623l-.905.085v1.757l.905.085c.121.579.35 1.129.675 1.623l-.582.7 1.242 1.242.7-.581a4.7 4.7 0 0 0 1.623.674l.085.905h1.757l.085-.905a4.7 4.7 0 0 0 1.623-.674l.7.581 1.242-1.242-.582-.7c.325-.494.554-1.044.675-1.623zm-5.53 1.5A2.38 2.38 0 0 1 3.15 5.529 2.38 2.38 0 0 1 5.528 3.15a2.38 2.38 0 0 1 1.683 4.06 2.38 2.38 0 0 1-1.682.697"/></g></g><g class="v p"><g clip-path="url(#Z)" transform="translate(142.728 273.761)"><path d="M9.29 5.383V3.906l-.761-.072c-.101-.486-.293-.948-.566-1.363l.488-.59L7.407.838l-.589.488A3.93 3.93 0 0 0 5.454.76l-.071-.761H3.907l-.072.76c-.486.102-.948.294-1.363.567l-.59-.488L.839 1.881l.488.59c-.273.415-.465.877-.567 1.363L0 3.906v1.477l.76.071c.102.486.294.949.567 1.364l-.488.59 1.043 1.043.59-.488c.415.273.877.465 1.363.566l.072.761h1.477l.071-.761a3.93 3.93 0 0 0 1.364-.566l.589.488 1.044-1.043-.488-.59c.273-.415.465-.878.567-1.364zm-4.645 1.26a2 2 0 1 1 0-4 2 2 0 1 1 0 4"/></g></g><g class="t"><path d="M345.269 127.939l4.345 11.61 7.265-7.265z"/><path d="M350.639 134.926l1.619-1.619 3.597 3.597-1.619 1.619z"/></g><g opacity=".295" class="u"><g clip-path="url(#a)" transform="translate(345.269 127.938)"><path d="M11.61 4.345L0 0l4.344 11.611 2.824-2.824 1.8 1.8 1.619-1.619-1.8-1.8z"/></g></g><path d="M167.385 169.436l10.924 4.088-5.727-5.727a1.12 1.12 0 0 1-1.341-.172 1.13 1.13 0 1 1 1.6-1.6c.352.357.422.906.171 1.34l5.728 5.728-4.089-10.92-3.619.8-.137-1.307-.685-.685-4.01 4.01.685.685 1.307.141z" fill="#463a81"/><g class="q p"><g clip-path="url(#b)" transform="translate(166.195 160.981)"><path d="M1.19 8.455l10.924 4.088-5.727-5.727a1.12 1.12 0 0 1-1.341-.172 1.13 1.13 0 1 1 1.6-1.6c.352.357.422.906.171 1.34l5.728 5.728-4.089-10.92-3.619.8L4.7.685 4.015 0 .005 4.01l.685.685 1.307.141z"/></g></g><g opacity=".1" class="p"><g clip-path="url(#c)" transform="translate(125.665 118.669)"><path d="M38.48 0L0 143.79V0zm43.431 0L35.8 172.288H4.035L50.135 0zm46.182 0L81.982 172.288H67.615L113.726 0zm42.527 0l-46.111 172.288h-5.14L165.478 0z"/></g></g><path d="M452.507 156.678c3.633 4.2 22.126 39.819 18.551 48.136s-33.206-1.271-33.206-1.271l1.771-11.736s11.515.4 12.617-.687-15.577-17.748-15.577-17.748z" class="r"/><g class="Z q AM"><g><g clip-path="url(#d)" transform="translate(436.664 156.68)"><path d="M34.396 48.138a4.49 4.49 0 0 1-2.161 2.191c-.01 0-.02.01-.031.02l-.594.266a.71.71 0 0 1-.082.031c-.183.077-.371.142-.563.195a12.42 12.42 0 0 1-2.56.532l-.748.072-1.116.061-.973.02c-9.933.01-24.381-4.659-24.381-4.659l1.772-11.745s11.51.41 12.616-.686c.266-.266-.522-1.454-1.864-3.1l-.02-.02c-3.256-4-9.779-10.67-12.472-13.394L0 16.693 15.841.002C19.476 4.19 37.97 39.815 34.396 48.14"/></g></g></g><g class="Z q"><g><g clip-path="url(#e)" transform="translate(437.852 165.978)"><path d="M31.048 41.032c-.01 0-.02.01-.031.02l-.594.266a.71.71 0 0 1-.082.031c-.183.077-.371.142-.563.195a12.42 12.42 0 0 1-2.56.532l-.748.072-1.116.061-.973.02C14.448 42.239 0 37.57 0 37.57l1.772-11.745s12.964 1.1 14.07 0c.014-.015.025-.032.031-.051.2-.43-1.229-1.884-3.348-3.738l-.02-.02c-3.256-4-9.779-10.67-12.472-13.394l7.5-8.008 5.7-.614s12.6 20.388 17.818 41.032"/></g></g></g><path d="M415.145 155.513c-2.053 1.489-3.063 3.6-2.255 4.711l54.11 74.6c.807 1.113 3.125.808 5.178-.681s3.062-3.6 2.255-4.71l-54.11-74.6c-.808-1.113-3.126-.809-5.178.68" class="r"/><g class="y p"><g clip-path="url(#f)" transform="translate(412.616 154.161)"><path d="M7.705.669l54.11 74.6c.806 1.111-.2 3.223-2.253 4.708s-4.368 1.79-5.174.679L.278 6.056a2.33 2.33 0 0 1 .2-2.483 6 6 0 0 1 1.027-1.34 8.19 8.19 0 0 1 1.028-.885C4.58-.137 6.901-.442 7.707.669"/></g></g><g class="i" opacity=".3"><g><g clip-path="url(#g)" transform="translate(413.091 156.394)"><path d="M61.34 73.038c.806 1.111-.2 3.223-2.253 4.707s-4.368 1.79-5.174.68c-.444-.613.672-1.54 1.32-2.886L0 1.339C.277.846.623.396 1.027 0l54.116 74.611c.315-.325.657-.624 1.022-.893 2.047-1.485 4.368-1.79 5.174-.679"/></g></g></g><path d="M408.442 153.44c-1.733 1.851-2.324 4.113-1.321 5.053l67.278 62.986c1 .939 3.221.2 4.955-1.651s2.323-4.113 1.32-5.052l-67.277-62.986c-1-.94-3.223-.2-4.955 1.65" class="t"/><g class="y p"><g clip-path="url(#h)" transform="translate(406.639 151.384)"><path d="M6.757.407l67.277 62.986c1 .938.41 3.2-1.319 5.049s-3.95 2.587-4.951 1.649L.486 7.105A2.33 2.33 0 0 1 .21 4.629c.179-.536.433-1.045.754-1.51.251-.377.533-.732.842-1.063C3.535.21 5.757-.531 6.758.407"/></g></g><g class="i" opacity=".3"><g><g clip-path="url(#i)" transform="translate(406.848 154.503)"><path d="M73.824 60.274c1 .938.41 3.2-1.319 5.049s-3.95 2.587-4.952 1.649c-.553-.518.369-1.639.75-3.084L.003 1.51C.183.974.437.466.758.001l67.285 62.992a8.26 8.26 0 0 1 .834-1.07c1.728-1.846 3.951-2.587 4.952-1.649"/></g></g></g><g class="AG"><path d="M424.612 354.455l-5.13.082c-5.212-24.484-8.9-54.784-11.192-77.64l-.973-10.138-.389-4.342-1.29-15.688-.276-3.809h18.534l-.174 4.721-.573 15.585-.061 1.782-.389 10.291-.645 17.521c6.359 24.668 2.56 61.635 2.56 61.635m41.572-1.31l-5.048.952c-10.107-25.262-19.6-57.61-25.774-80.21l-2.621-9.748c-.041-.154-.072-.3-.113-.44l-3.5-13.578-.891-3.615 18.268-3.154 1.034 7.68 1.526 11.285.3 2.212 1.034 7.69 2.775 20.623c10.465 23.224 13.015 60.3 13.015 60.3"/></g><g class="Z q"><g><g clip-path="url(#j)" transform="translate(429.128 250.12)"><path d="M19.937 12.196L3.614 14.019l-.113-.44L.001.001l18.411.911z"/></g></g></g><g class="Z q"><g><g clip-path="url(#k)" transform="translate(405.637 246.731)"><path d="M18.084.911l-.573 15.585-.061 1.782-15.77 1.751-.389-4.342L.001-.001z"/></g></g></g><g class="r"><path d="M409.466 371.473c.954-.773 2.042-1.365 3.21-1.746 0 0 3.492-3.463 5.172-13.893l4.571-1.192a3.9 3.9 0 0 1 4.158 1.624 2.19 2.19 0 0 1 .291.6 26.61 26.61 0 0 1 .488 3.388c.254 3.812.276 7.636.066 11.451h-.826l-.329-7.19c-.122-2.441-1.99.422-2.524 3.051s-1.671 5.425-7.022 5.556c-6.242.122-8.833-.122-7.256-1.652"/><path d="M426.738 356.352c.3-2.44.394-6.684.394-6.684l-10.159 1.127s1.23 4.825.215 8.448l9.547-2.891m24.059 15.121a10.05 10.05 0 0 1 3.21-1.746s3.492-3.463 5.172-13.893l4.571-1.192a3.9 3.9 0 0 1 4.158 1.624 2.19 2.19 0 0 1 .291.6c.235 1.118.398 2.249.488 3.388a94.22 94.22 0 0 1 .071 11.455h-.826l-.329-7.19c-.122-2.441-1.99.422-2.524 3.051s-1.671 5.425-7.022 5.556c-6.242.122-8.833-.122-7.256-1.652"/><path d="M468.065 356.352c.3-2.44.394-6.684.394-6.684l-10.156 1.127s1.229 4.825.215 8.448l9.547-2.891"/></g><path d="M450.825 257.289l-19.323 2.468-.748.092-3.973-14.561-1.044 15.606-20.705-1.085c-9.226-54.139 6.543-66.929 6.543-66.929l28.088 5.652c12.721 21.622 9.694 46.757 9.694 46.757z" fill="#8039db"/><ellipse cx="422.12" cy="125.427" rx="2.106" ry="3.848" class="o AC AK AL"/><path d="M438.093 138.323a1.5 1.5 0 0 1-.244.178 11.2 11.2 0 0 1-3.924 1.92c-4.149.957-6.984.389-8.833-1.488h-.009c-2.591-2.816-3.239-7.8-2.872-13.822a22.61 22.61 0 0 1 1.314-7.029c.01-.018.01-.088.02-.106.037-.075.065-.18.1-.255 1.032-2.586 3.304-4.474 6.036-5.014 1.168-.261 2.36-.395 3.557-.4 11.733-.122 13.844 19.313 4.853 26.015" class="AG"/><g class="Z q"><g><g clip-path="url(#l)" transform="translate(425.096 137.584)"><path d="M12.757.918a10.9 10.9 0 0 1-3.924 1.755C4.685 3.63 1.849 2.927 0 1.021a11.7 11.7 0 0 0 7.444-.61 6.1 6.1 0 0 1 5.313.507"/></g></g></g><path d="M439.045 149.098c.723 3.341-3.6 4.7-3.6 4.7-7.078-3.022-8.392-6.786-8.392-6.786 5.9-3.079 4.2-11.789 4.2-11.789l1.2.591 8.432 1.65s-2.34 4.489-2.649 5.512c0 .009-.01.019-.01.029-1.586 5.35.826 6.092.826 6.092" class="AG"/><path d="M423.526 118.006s-.647 8.229 7.151 11.763c0 0 3.349 8.547 8.278 8.668 6.719.164 12.642-9.4 10.315-19.137-3.02-12.63-22.153-13.657-25.743-1.294" class="r"/><path d="M426.726 127.405c0-1.283 1.034-3.44 3.03-3.147 2.064.3 3.209 5.393-1.866 6.53-.728.164-1.17-.706-1.164-3.383" class="AG"/><g class="r"><path d="M437.853 109.26s-7.85-1.986-12.189 1.171c-5.067 3.685-6.989 7.5-.989 13.417 0 0 13.18-4.272 17.562-3.368 2.56.519 5.074 1.249 7.514 2.182.923-8.7-7.514-15.183-11.9-13.4"/><path d="M426.726 125.423s2.1 9.488-1.168 17.571c0 0 18.634 6.466 25.116 2.954s.54-15.3.27-22.1-3.226-16.844-13.091-14.589-11.127 16.164-11.127 16.164"/></g><path d="M420.014 124.819h7.874" class="o AC AF AK AL"/><g class="Z q"><g><g clip-path="url(#m)" transform="translate(426.783 223.158)"><path d="M4.72 36.598l-.747.092L0 22.129S8.52 7.578 5.857 0c.379.532 9.554 14.141-1.137 36.6"/></g></g></g><path d="M415.55 148.364s9.37-3.342 23.5.734 14.644 10.095 14.644 10.095-8.951 20.283-10.358 43.248l-36.806-1.375s-4.389-32.411 9.023-52.7" class="r"/><g class="Z q r"><g><g clip-path="url(#n)" transform="translate(405.845 147.078)"><path d="M47.848 12.111s-8.95 20.285-10.363 43.254l-36.8-1.372C.247 50.268.021 46.521.009 42.77a109.8 109.8 0 0 1 1.024-16.476c1.229-8.5 3.758-17.572 8.673-25.006 0 0 9.37-3.338 23.491.737S47.85 12.111 47.85 12.111"/></g></g></g><g class="Z q"><g><g clip-path="url(#o)" transform="translate(405.845 173.371)"><path d="M9.192 1.382S7.666 10.721.007 16.476A109.8 109.8 0 0 1 1.031 0z"/></g></g></g><path d="M374.378 147.723l-4.64-6.883s-.714-2.989-1.607-3.672-9.815-4.466-10.886-4.448-1.07 6.943 0 8.12 6.693 3.7 8.164 3.956.759 0 .759 0l4.105 8.184z" class="AG"/><path d="M415.549 148.364a202.27 202.27 0 0 0-28.7 14.8l-14.973-20.429s-4.044 1.254-5.534 8.276c0 0 7.693 29.3 17.686 32.206s31-8.463 31-8.463 6.1-15.272.512-26.394" class="r"/><g class="Z q AM"><g><g clip-path="url(#p)" transform="translate(366.348 142.739)"><path d="M49.201 5.625a202.27 202.27 0 0 0-28.7 14.8L5.528-.004S1.484 1.25-.006 8.272c0 0 7.693 29.3 17.686 32.206s31-8.463 31-8.463 6.1-15.272.512-26.394"/></g></g></g><path d="M425.021 147.078s3.268 23.383 13.622 24.328 14.988-16.33 13.233-18.428-15.091-6.057-26.855-5.9" class="r"/><g class="i" opacity=".3"><g><g clip-path="url(#q)" transform="translate(425.021 147.073)"><path d="M0 .005s3.268 23.383 13.622 24.328S28.61 8.003 26.855 5.905 11.764-.152 0 .005" fill="#c3cde4"/></g></g></g></g><path d="M56.691 362.203h7.582l.628-17.566h-7.592z" class="z"/><g class="AA"><path d="M65.324 361.326h-9.212c-.31.002-.578.218-.646.521l-1.5 6.752a1.12 1.12 0 0 0 .863 1.326 1.1 1.1 0 0 0 .246.025l8.893-.232c2.306 0 9.261.242 12.444.242s3.6-3.145 2.3-3.435c-5.845-1.273-10.244-3.038-12.116-4.716-.346-.319-.802-.491-1.273-.482" class="r"/><g class="u"><path d="M65.845 362.378c-.072-.02-.125-.081-.135-.155s.023-.14.087-.173c.27-.174 2.721-1.679 3.559-1.245a.54.54 0 0 1 .309.5 1.06 1.06 0 0 1-.377.965 2.27 2.27 0 0 1-1.456.386 9.11 9.11 0 0 1-1.988-.28m.521-.251c.885.299 1.85.251 2.7-.135.181-.163.271-.404.241-.646-.009-.145-.068-.212-.116-.212-.071-.039-.151-.055-.231-.048-.924.178-1.805.531-2.595 1.041"/><path d="M65.797 362.414c-.055-.037-.088-.099-.087-.165.01-.105.194-2.286 1.071-3a.96.96 0 0 1 .762-.231c.281-.002.524.196.579.472.155.8-1.36 2.47-2.141 2.894h-.087c-.029.02-.064.031-.1.03m1.215-2.952c-.534.681-.848 1.509-.9 2.373.781-.588 1.746-1.851 1.65-2.344-.01-.048-.03-.183-.261-.183h-.086a.62.62 0 0 0-.406.155"/></g><g class="Z q"><g><g clip-path="url(#r)" transform="translate(56.981 344.647)"><path d="M.328 0h7.591l-.328 9.057H0z"/></g></g></g><path d="M95.738 362.773l7.825.826 1.468-16.878-7.824-.826z" class="z"/><path d="M104.391 361.084H95.18c-.31.002-.578.218-.646.521l-1.5 6.752a1.12 1.12 0 0 0 1.109 1.351l8.893-.232c2.306 0 9.26.242 12.444.242s3.6-3.145 2.3-3.435c-5.846-1.273-10.244-3.038-12.116-4.717a1.83 1.83 0 0 0-1.273-.482" class="r"/><g class="u"><path d="M104.912 362.136c-.072-.019-.126-.081-.135-.155s.024-.14.087-.173c.27-.174 2.721-1.678 3.559-1.244a.54.54 0 0 1 .309.5 1.06 1.06 0 0 1-.377.965 2.27 2.27 0 0 1-1.456.386 9.11 9.11 0 0 1-1.988-.28m.521-.251c.885.299 1.85.251 2.7-.135.181-.163.271-.404.241-.646-.009-.144-.068-.212-.116-.212-.071-.039-.151-.055-.231-.048-.924.178-1.805.531-2.595 1.041"/><path d="M104.864 362.175c-.055-.037-.088-.099-.087-.165.01-.105.194-2.286 1.071-3a.96.96 0 0 1 .762-.231.59.59 0 0 1 .579.472c.155.8-1.36 2.47-2.141 2.894h-.092c-.029.02-.064.031-.1.03m1.215-2.952a4.25 4.25 0 0 0-.9 2.373c.781-.588 1.746-1.851 1.65-2.344-.01-.048-.03-.183-.261-.183h-.086a.62.62 0 0 0-.406.155"/></g><g class="Z q"><g><g clip-path="url(#s)" transform="translate(96.442 345.896)"><path d="M.764 0l7.825.826-.764 8.7L0 8.7z"/></g></g></g><path d="M60.44 190.566h40.247c3.827 20.9 15.805 94.844 7.211 160.731l-13.628-1.692s1.262-87.467-10.768-119.8c-1.383 17.306-3.026 35.719-4.453 45.518l-11 76.817H54.184l4.147-74.146c1.434-25.731 2.053-82.142 2.108-87.426" class="r"/><g class="u"><path d="M109.456 354.469l-16.864-2.509.516-4.671 17.543 2.3zm-39.733-2.221H53.364v-4.891l16.977-.318z"/></g><g class="Z q"><g><g clip-path="url(#t)" transform="translate(83.507 215.483)"><path d="M0 14.321c1.982 5.668 3.487 11.492 4.5 17.411C5.625 16.332 1.124-.001 1.124-.001z"/></g></g></g><path d="M59.302 197.568l-.92 4.861s28.162 3.646 45.683 3.545l-.608-3.344z" class="u"/><g class="z"><path d="M116.467 155.45s9.744 30.711 16.4 32.719 23.6-23.336 23.6-23.336 15.183-.146 15.862-1.183-3.944-11.728-5.054-11.747-14.328 4.975-14.841 5.808-15.683 15.34-16.422 14.93-6.475-18.683-6.475-18.683z"/><path d="M158.413 163.221c.123-.024.245-.055.365-.093l-.178-.113a1.25 1.25 0 0 1-.186.206"/></g><path d="M110.938 151.905l1.188 2.188 5.546 10.25 1.15 2.114 15.553-5.406s-6.462-24.147-8.707-26.616z" class="t"/><g class="m u" opacity=".75"><g><g clip-path="url(#u)" transform="translate(110.938 134.435)"><path d="M0 17.47l1.188 2.188 5.546 10.25 1.15 2.114 15.553-5.406S16.975 2.469 14.73 0z"/></g></g></g><g class="Z q"><g><g clip-path="url(#v)" transform="translate(112.126 148.398)"><path d="M.002 5.695l5.546 10.25C8.97 9.211 7.979-.001 7.979-.001z"/></g></g></g><path d="M125.668 134.433c-5.919-6.841-14.388-10.951-23.425-11.369-15.246-.716-20.033.8-25.606 5.774-8.139 7.266-18.252 69.885-18.252 69.885a141.41 141.41 0 0 0 45.69 4.969c0 0 .183-17.38 5.682-29.1a325.47 325.47 0 0 0 15.911-40.159" class="u"/><g class="g v p"><g><g clip-path="url(#w)" transform="translate(58.379 122.896)"><path d="M0 75.825a141.51 141.51 0 0 0 45.694 4.976c0 0 .019-2.142.291-5.433a99.1 99.1 0 0 1 .57-5.34l1.075-6.444.833-3.61c.715-2.842 1.688-5.613 2.908-8.277q1.011-2.161 1.964-4.255a362 362 0 0 0 8.361-19.986l2.693-7.285 1.964-5.7.935-2.937c-.512-.635-1.061-1.237-1.646-1.805A33.3 33.3 0 0 0 44.366.2a10.76 10.76 0 0 0-.506-.038c-11.615-.542-17.161.206-21.6 2.8-1.433.853-2.774 1.853-4 2.984a13.8 13.8 0 0 0-2.786 4.358 94.4 94.4 0 0 0-4.653 13.58l-.674 2.487a354.79 354.79 0 0 0-2.908 11.943l-.776 3.488-1.122 5.3-2.479 12.541L.524 72.68.001 75.823M44.751.763a32.9 32.9 0 0 1 3.048.243c4.134.552 10.391 3.835 10.232 5.4s-2.554 5.528-8.669 4.564a15.17 15.17 0 0 1-5.939-2.478c-3.385-2.235-5.845-5.256-6.088-6.238-.29-1.159 3.684-1.6 7.416-1.487"/></g></g></g><path d="M89.988 144.514s-8.1 19.533-9.723 35.737l21.814 2.783s9.8-26.383 11.815-34.636c0 0-17.424-1.744-23.906-3.884" opacity=".805" class="u"/><g class="g v p"><g><g clip-path="url(#x)" transform="translate(109.636 149.159)"><path d="M0 0l3.038.3L.81 2.021z"/></g></g></g><path d="M97.758 125.178c1.648 4.711 7.782 6.861 11 7.133a5.47 5.47 0 0 0 5.833-3.161s-3.67-1.826-3.308-3.89a9.66 9.66 0 0 1 1.514-3.5c.388-.6.807-1.178 1.257-1.733l-5.887-12.618c-1.318 5.507-5.341 16.008-10.411 17.769" class="z"/><g class="Z q"><g><g clip-path="url(#y)" transform="translate(106.961 113.272)"><path d="M.971 0c-2.81 6.113 1.158 10.371 3.353 11.989a9.68 9.68 0 0 1 1.514-3.5z"/></g></g></g><path d="M127.677 96.877s1.884 10.4-3.547 14.576-5.98-15.271-5.98-15.271z" class="z"/><g class="g v"><g><g clip-path="url(#z)" transform="translate(118.149 96.182)"><path d="M9.528.695s1.884 10.4-3.547 14.576S.001 0 .001 0z"/></g></g></g><path d="M108.27 120.211c2.489 3.467 6.987 4.844 10.99 3.366a10.72 10.72 0 0 0 6.361-6.1c2.548-6.46 3.123-22.233-3.768-21.644-5.645.482-11.181-1.266-14.064 3.621a10.22 10.22 0 0 0-1.415 4.566c-.617 7.486-1.333 11.859 1.9 16.187" class="z"/><g class="r"><path d="M117.366 107.701c-.127.594.161 1.139.563 1.2s.784-.394.873-1-.17-1.141-.563-1.2-.782.384-.873 1m6.844.972c-.127.594.17 1.141.563 1.2s.784-.4.873-1-.17-1.141-.562-1.2-.792.422-.874 1"/></g><path d="M121.993 108.663c.458 1.954 1.185 3.836 2.159 5.591a3.54 3.54 0 0 1-2.988.13z" fill="#a24e3f"/><g class="r"><path d="M115.556 105.185c.129.037.268.003.365-.09a2.9 2.9 0 0 1 2.444-.868.36.36 0 0 0 .426-.274.36.36 0 0 0-.274-.426c-1.143-.173-2.3.22-3.1 1.055-.142.134-.149.357-.016.5l.005.006a.57.57 0 0 0 .148.091m11.933 1.55a.35.35 0 0 0 .208.044c.188-.058.294-.257.237-.445v-.007a3.56 3.56 0 0 0-2.277-2.361c-.091-.025-.189-.012-.271.035s-.142.125-.166.216c-.047.19.064.383.251.438a2.9 2.9 0 0 1 1.774 1.9c.052.094.143.16.248.181"/></g><path d="M116.412 114.653s1.26 2.705 3.825 2.605" class="o AC AF AK AL"/><use xlink:href="#AH" class="z"/><g class="g v"><g><g clip-path="url(#AA)" transform="translate(102.241 95.52)"><path d="M10.904 0l.094 3.334a2.47 2.47 0 0 0-1.524 2.979c.8 2.872-1.169 7.026-3.457 8.541 0 0 .046-1.207-.994-1.017s-1.345 6.472.353 9.64c0 0-3.625-3.331-4.7-10.056-.993-6.22-.822-10.16.06-13.134z"/></g></g></g><path d="M102.318 99.524a34.63 34.63 0 0 0 10.922-.671c10.32-2.053 14.708 1.745 14.708 1.745a6.5 6.5 0 0 0 2.145-5.078c-.3-2.974-4.428-3.48-4.428-3.48s-1.243-3.342-3.977-4.355-5.475 1.52-5.475 1.52-3.413-3.292-7.384-2.356a5.96 5.96 0 0 0-4.764 5.8c0 0-4.659.477-4.558 2.872s2.811 4 2.811 4" class="r"/><g class="o AC AK AL"><path d="M121.502 108.2a3.38 3.38 0 1 1-3.344-3.855 3.63 3.63 0 0 1 3.344 3.855zm8.418.572a3.38 3.38 0 1 1-3.344-3.855 3.63 3.63 0 0 1 3.344 3.855z"/><g class="AF"><path d="M121.502 108.662s1.078-.679 1.729.11m-8.418-.572l-5.874-.782c-.767-.102-1.543.108-2.153.583l-.256.2"/></g></g><path d="M102.259 109.66c.587 1.799 1.863 3.293 3.548 4.153 2.241 1.122 3.838-.769 3.621-3.134-.212-2.1-1.613-5.284-4.062-5.4s-3.8 2.163-3.107 4.381" class="z"/><g class="Z q"><g><g clip-path="url(#AB)" transform="translate(64.841 140.786)"><path d="M0 23.914C9.66 19.902 17.3 3.32 17.3 3.32L11.81 0 4.358 5.994l-.674 2.488A354.72 354.72 0 0 0 .776 20.424L0 23.913"/></g></g></g><g class="u"><path d="M118.075 166.458l16.677-6.124.472 1.417-16.676 5.941zM21.804 230.65l4.736-29.804 48.322 7.679-4.736 29.804z"/></g><g stroke-width="2" class="o w AC AF"><path d="M43.648 212.284l-9.815 5.091 7.759 7.875m11.44 1.811l9.815-5.087-7.759-7.876m-10.077 11.691l6.657-12.233"/></g><path d="M70.866 131.505s-18.208 18.277-20.697 21.838-7.233 42.939-7.233 42.939-1 .347-1.087 1.2-.16 11.913 0 12.425 8.546 5.684 9.779 4.455 2.96-13.757 2.96-13.757l-4.419-4.323s5.145-29.01 8.358-33.7 16.484-14.755 16.484-14.755z" class="z"/><path d="M84.867 124.146c2.654 5.621.636 17.456-4.255 21.634a143.46 143.46 0 0 1-16.372 11.746l-8.944-11.697 15.258-14.624c7-6.5 14.317-7.059 14.317-7.059" class="t"/><g class="m u" opacity=".75"><g><g clip-path="url(#AC)" transform="translate(55.293 124.146)"><path d="M29.574 0c2.654 5.621.636 17.456-4.255 21.634A143.46 143.46 0 0 1 8.947 33.38L.003 21.683 15.261 7.059C22.261.559 29.578 0 29.578 0"/></g></g></g><path d="M55.293 145.074l-1.106 1.507 9.335 12.2 1.319-.945z" opacity=".901" class="u"/></g></g></svg>